<?xml version="1.0"?>
<svg xmlns="http://www.w3.org/2000/svg" xmlns:xlink="http://www.w3.org/1999/xlink" version="1.1" id="Capa_1" x="0px" y="0px" viewBox="0 0 512 512" style="enable-background:new 0 0 512 512;" xml:space="preserve" width="512px" height="512px"><g><g>
	<g>
		<g>
			<path d="M395.624,144.092c-4.142,0-7.5,3.357-7.5,7.5v273.716c0,10.804-8.789,19.593-19.593,19.593h-36.305     c-4.142,0-7.5,3.357-7.5,7.5s3.358,7.5,7.5,7.5h36.305c7.27,0,14.019-2.259,19.593-6.105v24.661     c0,10.225-8.318,18.543-18.543,18.543H142.419c-10.225,0-18.543-8.318-18.543-18.543v-24.661     c5.574,3.846,12.324,6.105,19.593,6.105h149.757c4.142,0,7.5-3.357,7.5-7.5s-3.358-7.5-7.5-7.5H143.469     c-10.804,0-19.593-8.789-19.593-19.593v-109.69c0-4.143-3.358-7.5-7.5-7.5c-4.142,0-7.5,3.357-7.5,7.5v162.839     c0,18.496,15.047,33.543,33.543,33.543H369.58c18.496,0,33.543-15.047,33.543-33.543V151.592     C403.124,147.449,399.766,144.092,395.624,144.092z" data-original="#000000" class="active-path" data-old_color="#000000" fill="#DEB887"/>
			<path d="M179.224,181.213v-9.293c0-4.143-3.358-7.5-7.5-7.5c-4.142,0-7.5,3.357-7.5,7.5v9.293c0,4.143,3.358,7.5,7.5,7.5     C175.866,188.713,179.224,185.355,179.224,181.213z" data-original="#000000" class="active-path" data-old_color="#000000" fill="#DEB887"/>
			<path d="M156.569,275.233v26.609c0,10.768,8.761,19.528,19.529,19.528h159.804c10.768,0,19.529-8.761,19.529-19.528v-26.609     c0-10.768-8.761-19.528-19.529-19.528H176.098C165.33,255.705,156.569,264.466,156.569,275.233z M171.569,275.233     c0-2.497,2.032-4.528,4.529-4.528h159.804c2.497,0,4.529,2.031,4.529,4.528v26.609c0,2.497-2.032,4.528-4.529,4.528H176.098     c-2.497,0-4.529-2.031-4.529-4.528V275.233z" data-original="#000000" class="active-path" data-old_color="#000000" fill="#DEB887"/>
			<path d="M347.776,181.213v-9.293c0-4.143-3.358-7.5-7.5-7.5c-4.142,0-7.5,3.357-7.5,7.5v9.293c0,4.143,3.358,7.5,7.5,7.5     C344.418,188.713,347.776,185.355,347.776,181.213z" data-original="#000000" class="active-path" data-old_color="#000000" fill="#DEB887"/>
			<path d="M256,209.241c10.427,0,19.879-6.168,24.081-15.713c1.668-3.791-0.052-8.218-3.843-9.886     c-3.791-1.669-8.217,0.052-9.886,3.843c-1.806,4.104-5.869,6.756-10.351,6.756c-4.482,0-8.545-2.652-10.352-6.757     c-1.668-3.791-6.094-5.511-9.885-3.845c-3.792,1.669-5.513,6.095-3.844,9.886C236.12,203.072,245.572,209.241,256,209.241z" data-original="#000000" class="active-path" data-old_color="#000000" fill="#DEB887"/>
			<path d="M338.994,344.6h-23.723c-9.064,0-16.437,7.373-16.437,16.436v23.724c0,9.063,7.374,16.436,16.437,16.436h23.723     c9.063,0,16.437-7.373,16.437-16.436v-23.724C355.431,351.973,348.057,344.6,338.994,344.6z M340.431,384.76     c0,0.792-0.645,1.436-1.437,1.436h-23.723c-0.793,0-1.437-0.645-1.437-1.436v-23.724c0-0.792,0.645-1.436,1.437-1.436h23.723     c0.792,0,1.437,0.644,1.437,1.436V384.76z" data-original="#000000" class="active-path" data-old_color="#000000" fill="#DEB887"/>
			<path d="M244.138,344.6c-9.063,0-16.436,7.373-16.436,16.436v23.724c0,9.063,7.373,16.436,16.436,16.436h23.724     c9.063,0,16.437-7.373,16.437-16.436v-23.724c0-9.063-7.374-16.436-16.437-16.436H244.138z M269.298,361.036v23.724     c0,0.792-0.645,1.436-1.437,1.436h-23.724c-0.792,0-1.436-0.645-1.436-1.436v-23.724c0-0.792,0.645-1.436,1.436-1.436h23.724     C268.654,359.6,269.298,360.244,269.298,361.036z" data-original="#000000" class="active-path" data-old_color="#000000" fill="#DEB887"/>
			<path d="M281.869,25.8h-51.738c-4.142,0-7.5,3.357-7.5,7.5s3.358,7.5,7.5,7.5h51.738c4.142,0,7.5-3.357,7.5-7.5     S286.011,25.8,281.869,25.8z" data-original="#000000" class="active-path" data-old_color="#000000" fill="#DEB887"/>
			<path d="M369.581,0H142.419c-18.496,0-33.543,15.047-33.543,33.543v248.073c0,4.143,3.358,7.5,7.5,7.5c4.142,0,7.5-3.357,7.5-7.5     V86.692c0-10.804,8.789-19.593,19.593-19.593h225.062c10.804,0,19.593,8.789,19.593,19.593v30.348c0,4.143,3.358,7.5,7.5,7.5     c4.142,0,7.5-3.357,7.5-7.5V33.543C403.124,15.047,388.077,0,369.581,0z M368.531,52.1H143.469     c-7.27,0-14.019,2.259-19.593,6.105V33.543c0-10.225,8.318-18.543,18.543-18.543H369.58c10.225,0,18.543,8.318,18.543,18.543     v24.66C382.549,54.359,375.8,52.1,368.531,52.1z" data-original="#000000" class="active-path" data-old_color="#000000" fill="#DEB887"/>
			<path d="M247.887,470.427c-4.142,0-7.5,3.357-7.5,7.5s3.358,7.5,7.5,7.5h16.226c4.142,0,7.5-3.357,7.5-7.5s-3.358-7.5-7.5-7.5     H247.887z" data-original="#000000" class="active-path" data-old_color="#000000" fill="#DEB887"/>
			<path d="M156.569,384.76c0,9.063,7.374,16.436,16.437,16.436h23.723c9.063,0,16.437-7.373,16.437-16.436v-23.724     c0-9.063-7.374-16.436-16.437-16.436h-23.723c-9.063,0-16.437,7.373-16.437,16.436V384.76z M171.569,361.036     c0-0.792,0.645-1.436,1.437-1.436h23.723c0.792,0,1.437,0.645,1.437,1.436v23.724c0,0.792-0.645,1.436-1.437,1.436h-23.723     c-0.792,0-1.437-0.645-1.437-1.436V361.036z" data-original="#000000" class="active-path" data-old_color="#000000" fill="#DEB887"/>
		</g>
	</g>
</g></g> </svg>
